<svg version="1.1" xmlns="http://www.w3.org/2000/svg" viewBox="0 0 386.30784254807713 290.1664663461539">
  <!-- svg-source:excalidraw -->
  
  <defs>
    <style>
      @font-face {
        font-family: "Virgil";
        src: url("https://excalidraw.com/FG_Virgil.woff2");
      }
      @font-face {
        font-family: "Cascadia";
        src: url("https://excalidraw.com/Cascadia.woff2");
      }
    </style>
  </defs>
  <g transform="translate(123.60802283653845 10) rotate(0 126.34990985576934 135.08323317307696)"><path d="M1.4067088195343502 -0.9016057453330316 C63.25541782692778 2.1098728246064304, 128.8330780024571 -0.022978808502732817, 251.18159176283928 0.5854794874932435 M-0.6867972101552335 0.5435878839684437 C66.25729845176564 1.2583741200286807, 133.55094267226397 1.3933382048523875, 252.61529193669196 -0.07930252692890091 M253.86574318030947 -0.09213314434568141 C251.2784806116598 93.00805694577598, 252.51380568446785 188.73285662930041, 252.04330859042773 270.1251869700898 M253.18189415650644 0.41130677308767083 C253.2412545972445 71.11745839897131, 252.82674035875402 142.23535787066052, 252.64445110400013 270.7005145698752 M251.90966920424083 269.86971044147793 C164.03520150205878 270.3852815476273, 72.26492501950617 268.094308789528, -1.3203820433163034 270.2765042421602 M252.92554699664242 270.65929977980414 C173.01753644468178 270.00807867896697, 91.96958392528366 270.4763660855521, -0.5297850643014044 269.3851460684381 M-0.4938446549617115 270.06826056533816 C2.8950359678996427 174.67521120726497, 2.7716855221003547 83.65317869049274, -1.2567922209450542 -1.3184132492956027 M-0.769036757037295 269.4306382565733 C1.8829074201074596 195.7186874710967, 2.382412479719938 119.96471113837573, 0.36045418764094145 0.7678284860794166" stroke="#000000" stroke-width="1" fill="none"></path></g><g><g transform="translate(125.64167668269226 39.307692307692264) rotate(0 124.1229660711565 0.46624517703429547)"><path d="M1.039268585667014 -0.6661012675613165 C42.57983586662564 -0.4250803377479315, 206.7498044681327 1.0004901144653557, 248.1201862785103 1.0186606261879205 M0.12574586380273112 1.5985916216298937 C41.55632331450585 1.560516287796199, 205.42600112521666 -0.3806757872179152, 246.87064042742122 -0.5691172938421369" stroke="#000000" stroke-width="1" fill="none"></path></g></g><g transform="translate(131.8766526442306 20.42788461538464) rotate(0 5.434044471153868 4.436448317307679)"><path d="M1.619544346319937 1.4078484215611713 C1.619544346319937 1.4078484215611713, 1.619544346319937 1.4078484215611713, 1.619544346319937 1.4078484215611713 M1.619544346319937 1.4078484215611713 C1.619544346319937 1.4078484215611713, 1.619544346319937 1.4078484215611713, 1.619544346319937 1.4078484215611713 M1.3580875222584887 7.80563243863706 C3.295151275140513 5.577295494548614, 5.232215028022537 3.3489585504601678, 7.262618783173054 1.0132462166321123 M1.3580875222584887 7.80563243863706 C3.3641238664325606 5.4979516045620755, 5.370160210606633 3.190270770487092, 7.262618783173054 1.0132462166321123 M5.0329848721400845 9.675158974376318 C6.912277646383985 7.51327993896741, 8.791570420627885 5.351400903558503, 10.93751613305465 2.88277275237137 M5.0329848721400845 9.675158974376318 C6.917455268227565 7.507323766374018, 8.801925664315045 5.339488558371719, 10.93751613305465 2.88277275237137" stroke="#fa5252" stroke-width="0.5" fill="none"></path><path d="M5.434044471153868 0 C6.540141015725928 -0.05664194301096814, 8.035066073462975 0.4269205447006442, 8.926980927697217 1.037931736649591 C9.81889578193146 1.648942928598538, 10.58335291309761 2.729943695141693, 10.785533596559322 3.666067151693681 C10.987714280021034 4.602190608245669, 10.722221104558052 5.831459323980504, 10.140065028467493 6.654672475961519 C9.557908952376934 7.477885627942533, 8.386692677711928 8.280233798976726, 7.292597140015972 8.605346063579766 C6.198501602320017 8.930458328182807, 4.669587339987719 8.930458328182807, 3.575491802291764 8.605346063579766 C2.4813962645958094 8.280233798976726, 1.310179989930801 7.477885627942533, 0.7280239138402429 6.654672475961519 C0.1458678377496847 5.831459323980504, -0.1196253377132975 4.602190608245668, 0.08255534574841494 3.6660671516936807 C0.2847360292101274 2.7299436951416927, 1.0491931603762756 1.6489429285985384, 1.9411080146105175 1.0379317366495915 C2.8330228688447594 0.42692054470064467, 4.851888395063309 0.1582004617172396, 5.434044471153867 0 C6.016200547244425 -0.1582004617172396, 5.434044471153868 0.014788161057692609, 5.434044471153868 0.0887289663461539 M5.434044471153868 0 C6.540141015725928 -0.05664194301096814, 8.035066073462975 0.4269205447006442, 8.926980927697217 1.037931736649591 C9.81889578193146 1.648942928598538, 10.58335291309761 2.729943695141693, 10.785533596559322 3.666067151693681 C10.987714280021034 4.602190608245669, 10.722221104558052 5.831459323980504, 10.140065028467493 6.654672475961519 C9.557908952376934 7.477885627942533, 8.386692677711928 8.280233798976726, 7.292597140015972 8.605346063579766 C6.198501602320017 8.930458328182807, 4.669587339987719 8.930458328182807, 3.575491802291764 8.605346063579766 C2.4813962645958094 8.280233798976726, 1.310179989930801 7.477885627942533, 0.7280239138402429 6.654672475961519 C0.1458678377496847 5.831459323980504, -0.1196253377132975 4.602190608245668, 0.08255534574841494 3.6660671516936807 C0.2847360292101274 2.7299436951416927, 1.0491931603762756 1.6489429285985384, 1.9411080146105175 1.0379317366495915 C2.8330228688447594 0.42692054470064467, 4.851888395063309 0.1582004617172396, 5.434044471153867 0 C6.016200547244425 -0.1582004617172396, 5.434044471153868 0.014788161057692609, 5.434044471153868 0.0887289663461539" stroke="#000000" stroke-width="1" fill="none"></path></g><g transform="translate(149.2602163461537 19.69516225961536) rotate(0 5.434044471153868 4.436448317307679)"><path d="M1.619544346319937 1.4078484215611713 C1.619544346319937 1.4078484215611713, 1.619544346319937 1.4078484215611713, 1.619544346319937 1.4078484215611713 M1.619544346319937 1.4078484215611713 C1.619544346319937 1.4078484215611713, 1.619544346319937 1.4078484215611713, 1.619544346319937 1.4078484215611713 M1.3580875222584887 7.80563243863706 C3.5672675517675776 5.2642615268262265, 5.776447581276667 2.722890615015393, 7.262618783173054 1.0132462166321123 M1.3580875222584887 7.80563243863706 C2.787590654366542 6.161177197436475, 4.217093786474596 4.516721956235888, 7.262618783173054 1.0132462166321123 M5.0329848721400845 9.675158974376318 C6.6989164645949515 7.758723901824853, 8.36484805704982 5.842288829273388, 10.93751613305465 2.88277275237137 M5.0329848721400845 9.675158974376318 C6.275775013270252 8.245492459214434, 7.518565154400418 6.81582594405255, 10.93751613305465 2.88277275237137" stroke="#7950f2" stroke-width="0.5" fill="none"></path><path d="M5.434044471153868 0 C6.540141015725928 -0.05664194301096814, 8.035066073462975 0.4269205447006442, 8.926980927697217 1.037931736649591 C9.81889578193146 1.648942928598538, 10.58335291309761 2.729943695141693, 10.785533596559322 3.666067151693681 C10.987714280021034 4.602190608245669, 10.722221104558052 5.831459323980504, 10.140065028467493 6.654672475961519 C9.557908952376934 7.477885627942533, 8.386692677711928 8.280233798976726, 7.292597140015972 8.605346063579766 C6.198501602320017 8.930458328182807, 4.669587339987719 8.930458328182807, 3.575491802291764 8.605346063579766 C2.4813962645958094 8.280233798976726, 1.310179989930801 7.477885627942533, 0.7280239138402429 6.654672475961519 C0.1458678377496847 5.831459323980504, -0.1196253377132975 4.602190608245668, 0.08255534574841494 3.6660671516936807 C0.2847360292101274 2.7299436951416927, 1.0491931603762756 1.6489429285985384, 1.9411080146105175 1.0379317366495915 C2.8330228688447594 0.42692054470064467, 4.851888395063309 0.1582004617172396, 5.434044471153867 0 C6.016200547244425 -0.1582004617172396, 5.434044471153868 0.014788161057692609, 5.434044471153868 0.0887289663461539 M5.434044471153868 0 C6.540141015725928 -0.05664194301096814, 8.035066073462975 0.4269205447006442, 8.926980927697217 1.037931736649591 C9.81889578193146 1.648942928598538, 10.58335291309761 2.729943695141693, 10.785533596559322 3.666067151693681 C10.987714280021034 4.602190608245669, 10.722221104558052 5.831459323980504, 10.140065028467493 6.654672475961519 C9.557908952376934 7.477885627942533, 8.386692677711928 8.280233798976726, 7.292597140015972 8.605346063579766 C6.198501602320017 8.930458328182807, 4.669587339987719 8.930458328182807, 3.575491802291764 8.605346063579766 C2.4813962645958094 8.280233798976726, 1.310179989930801 7.477885627942533, 0.7280239138402429 6.654672475961519 C0.1458678377496847 5.831459323980504, -0.1196253377132975 4.602190608245668, 0.08255534574841494 3.6660671516936807 C0.2847360292101274 2.7299436951416927, 1.0491931603762756 1.6489429285985384, 1.9411080146105175 1.0379317366495915 C2.8330228688447594 0.42692054470064467, 4.851888395063309 0.1582004617172396, 5.434044471153867 0 C6.016200547244425 -0.1582004617172396, 5.434044471153868 0.014788161057692609, 5.434044471153868 0.0887289663461539" stroke="#000000" stroke-width="1" fill="none"></path></g><g transform="translate(165.72175480769226 19.464393028846075) rotate(0 5.434044471153868 4.436448317307679)"><path d="M1.619544346319937 1.4078484215611713 C1.619544346319937 1.4078484215611713, 1.619544346319937 1.4078484215611713, 1.619544346319937 1.4078484215611713 M1.619544346319937 1.4078484215611713 C1.619544346319937 1.4078484215611713, 1.619544346319937 1.4078484215611713, 1.619544346319937 1.4078484215611713 M1.3580875222584887 7.80563243863706 C3.401254972853602 5.455237152810149, 5.4444224234487155 3.1048418669832367, 7.262618783173054 1.0132462166321123 M1.3580875222584887 7.80563243863706 C2.945156751156464 5.97991813764022, 4.53222598005444 4.154203836643379, 7.262618783173054 1.0132462166321123 M5.0329848721400845 9.675158974376318 C6.316210307896771 8.198976973739413, 7.5994357436534585 6.7227949731025065, 10.93751613305465 2.88277275237137 M5.0329848721400845 9.675158974376318 C6.821012676895274 7.618268276553213, 8.609040481650462 5.5613775787301085, 10.93751613305465 2.88277275237137" stroke="#40c057" stroke-width="0.5" fill="none"></path><path d="M5.434044471153868 0 C6.540141015725928 -0.05664194301096814, 8.035066073462975 0.4269205447006442, 8.926980927697217 1.037931736649591 C9.81889578193146 1.648942928598538, 10.58335291309761 2.729943695141693, 10.785533596559322 3.666067151693681 C10.987714280021034 4.602190608245669, 10.722221104558052 5.831459323980504, 10.140065028467493 6.654672475961519 C9.557908952376934 7.477885627942533, 8.386692677711928 8.280233798976726, 7.292597140015972 8.605346063579766 C6.198501602320017 8.930458328182807, 4.669587339987719 8.930458328182807, 3.575491802291764 8.605346063579766 C2.4813962645958094 8.280233798976726, 1.310179989930801 7.477885627942533, 0.7280239138402429 6.654672475961519 C0.1458678377496847 5.831459323980504, -0.1196253377132975 4.602190608245668, 0.08255534574841494 3.6660671516936807 C0.2847360292101274 2.7299436951416927, 1.0491931603762756 1.6489429285985384, 1.9411080146105175 1.0379317366495915 C2.8330228688447594 0.42692054470064467, 4.851888395063309 0.1582004617172396, 5.434044471153867 0 C6.016200547244425 -0.1582004617172396, 5.434044471153868 0.014788161057692609, 5.434044471153868 0.0887289663461539 M5.434044471153868 0 C6.540141015725928 -0.05664194301096814, 8.035066073462975 0.4269205447006442, 8.926980927697217 1.037931736649591 C9.81889578193146 1.648942928598538, 10.58335291309761 2.729943695141693, 10.785533596559322 3.666067151693681 C10.987714280021034 4.602190608245669, 10.722221104558052 5.831459323980504, 10.140065028467493 6.654672475961519 C9.557908952376934 7.477885627942533, 8.386692677711928 8.280233798976726, 7.292597140015972 8.605346063579766 C6.198501602320017 8.930458328182807, 4.669587339987719 8.930458328182807, 3.575491802291764 8.605346063579766 C2.4813962645958094 8.280233798976726, 1.310179989930801 7.477885627942533, 0.7280239138402429 6.654672475961519 C0.1458678377496847 5.831459323980504, -0.1196253377132975 4.602190608245668, 0.08255534574841494 3.6660671516936807 C0.2847360292101274 2.7299436951416927, 1.0491931603762756 1.6489429285985384, 1.9411080146105175 1.0379317366495915 C2.8330228688447594 0.42692054470064467, 4.851888395063309 0.1582004617172396, 5.434044471153867 0 C6.016200547244425 -0.1582004617172396, 5.434044471153868 0.014788161057692609, 5.434044471153868 0.0887289663461539" stroke="#000000" stroke-width="1" fill="none"></path></g><g stroke-opacity="0.4" fill-opacity="0.4" transform="translate(201.15279447115415 137.42503004807696) rotate(0 24.55679086538464 23.778545673076934)"><path d="M0.07415430306971338 23.91469523248911 C0.07415430306971338 23.91469523248911, 0.07415430306971338 23.91469523248911, 0.07415430306971338 23.91469523248911 M0.07415430306971338 23.91469523248911 C0.07415430306971338 23.91469523248911, 0.07415430306971338 23.91469523248911, 0.07415430306971338 23.91469523248911 M3.092992623960802 26.53893134845114 C11.084494460759327 17.345760109149445, 19.07599629755785 8.152588869847754, 25.398999609638047 0.8788056208768911 M3.092992623960802 26.53893134845114 C9.908285856973547 18.698833327246142, 16.723579089986295 10.858735306041144, 25.398999609638047 0.8788056208768911 M6.111830944851889 29.16316746441317 C11.823156002099847 22.593039555185392, 17.534481059347804 16.022911645957617, 28.417837930529135 3.50304173683892 M6.111830944851889 29.16316746441317 C13.945570211969393 20.151481301114526, 21.779309479086898 11.13979513781588, 28.417837930529135 3.50304173683892 M8.474610236752468 32.54211316059797 C14.162850164024553 25.99854165557103, 19.851090091296637 19.454970150544092, 31.436676251420224 6.127277852800949 M8.474610236752468 32.54211316059797 C14.253794118987868 25.893922602953502, 20.032978001223267 19.245732045309037, 31.436676251420224 6.127277852800949 M11.493448557643557 35.16634927656 C16.140735778610754 29.820256878277412, 20.788022999577947 24.474164479994826, 34.455514572311316 8.75151396876298 M11.493448557643557 35.16634927656 C18.654071370767532 26.92899501631615, 25.814694183891504 18.6916407560723, 34.455514572311316 8.75151396876298 M14.512286878534649 37.79058539252203 C22.647625441697485 28.431948927412748, 30.782964004860318 19.07331246230346, 36.818293864211896 12.130459664947782 M14.512286878534649 37.79058539252203 C22.075331870125044 29.090297371805356, 29.638376861715443 20.390009351088676, 36.818293864211896 12.130459664947782 M17.531125199425738 40.41482150848406 C25.309387040565536 31.46695482334411, 33.087648881705334 22.519088138204165, 39.83713218510299 14.75469578090981 M17.531125199425738 40.41482150848406 C25.326872016948514 31.44684065891213, 33.12261883447128 22.478859809340204, 39.83713218510299 14.75469578090981 M20.549963520316822 43.03905762444609 C27.943489919147428 34.53377843727684, 35.33701631797803 26.028499250107586, 42.85597050599407 17.37893189687184 M20.549963520316822 43.03905762444609 C26.66961159230532 35.99920781911956, 32.789259664293816 28.95935801379303, 42.85597050599407 17.37893189687184 M23.568801841207915 45.663293740408115 C29.076163779469805 39.327798559500174, 34.583525717731696 32.992303378592226, 45.874808826885165 20.003168012833868 M23.568801841207915 45.663293740408115 C29.50513497447396 38.83432364915954, 35.44146810774001 32.00535355791098, 45.874808826885165 20.003168012833868 M26.587640162099 48.28752985637014 C34.80480567885522 38.83476224898789, 43.02197119561143 29.38199464160564, 48.23758811878574 23.382113709018668 M26.587640162099 48.28752985637014 C31.023103001697415 43.185113534293336, 35.45856584129583 38.08269721221653, 48.23758811878574 23.382113709018668" stroke="#fa5252" stroke-width="0.5" fill="none"></path><path d="M25 0 C32.294994354728836 7.2606328859925275, 39.58998870945767 14.521265771985055, 49.11358173076928 24 M49.11358173076928 24 C40.52941613261706 32.38606124067212, 31.945250534464826 40.77212248134424, 25 47.55709134615387 M25 47.55709134615387 C17.91240727994591 40.87856858092789, 10.824814559891818 34.20004581570192, 0 24 M0 24 C5.863774851895869 18.370776142179967, 11.727549703791738 12.741552284359932, 25 0" stroke="#000000" stroke-width="1.5" fill="none" stroke-dasharray="3 6"></path></g><g stroke-opacity="0.4" fill-opacity="0.4" transform="translate(194.46574519230785 106.08653846153845) rotate(0 54.41256009615381 54.41256009615381)"><path d="M54.4125600961538 0 C63.18210400941412 -0.7806350729096229, 74.15976534005637 2.876283868983937, 82.10585666434429 7.574455721576484 C90.05194798863221 12.272627574169032, 97.64028247758188 20.100697715598763, 102.08910804188136 28.18903111555528 C106.53793360618084 36.2773645155118, 109.0858404606723 46.87782078475616, 108.79881005014116 56.104456121315586 C108.51177963961001 65.331091457875, 105.30990029912184 75.75267824417017, 100.3669255786945 83.54884313491183 C95.42395085826718 91.3450080256535, 87.36371528850952 98.68626847705694, 79.14096172757715 102.88144546576558 C70.91820816664477 107.07662245447422, 60.24365330764467 109.29368831220698, 51.03040421310021 108.7199050671637 C41.81715511855575 108.1461218221204, 31.50016624768875 104.62174342391553, 23.861467160310383 99.43874599550583 C16.222768072932016 94.25574856709612, 9.135681108386356 85.97114231137742, 5.198209688830005 77.62192049670548 C1.2607382692736544 69.27269868203355, -0.6233425529782354 58.53436818281025, 0.23663864297228088 49.34341510747425 C1.096619838922797 40.15246203213825, 4.940089004679709 29.950048237981377, 10.358096864533103 22.47620204468949 C15.776104724386496 15.002355851397603, 25.402275263489198 8.246371621837849, 32.74468580209265 4.500337947722933 C40.08709634069609 0.7543042736080179, 50.80124771381026 0.5686811242999757, 54.41256009615379 0 C58.02387247849732 -0.5686811242999757, 54.4125600961538 0.18137520032051546, 54.4125600961538 1.0882512019230788" stroke="#000000" stroke-width="1.5" fill="none" stroke-dasharray="3 6"></path></g><g stroke-opacity="0.4" fill-opacity="0.4" transform="translate(249.33037860576917 137.6759314903848) rotate(0 24.55679086538464 23.778545673076934)"><path d="M0.07415430306971338 23.91469523248911 C0.07415430306971338 23.91469523248911, 0.07415430306971338 23.91469523248911, 0.07415430306971338 23.91469523248911 M0.07415430306971338 23.91469523248911 C0.07415430306971338 23.91469523248911, 0.07415430306971338 23.91469523248911, 0.07415430306971338 23.91469523248911 M3.092992623960802 26.53893134845114 C9.715749217555782 18.920321394464843, 16.338505811150764 11.301711440478543, 25.398999609638047 0.8788056208768911 M3.092992623960802 26.53893134845114 C10.660417217062484 17.833605172519658, 18.22784181016417 9.128278996588175, 25.398999609638047 0.8788056208768911 M6.111830944851889 29.16316746441317 C13.082131978851518 21.14475336608006, 20.052433012851147 13.126339267746946, 28.417837930529135 3.50304173683892 M6.111830944851889 29.16316746441317 C12.648371376059771 21.643737859828825, 19.184911807267653 14.124308255244483, 28.417837930529135 3.50304173683892 M8.474610236752468 32.54211316059797 C14.30356259637477 25.83667051889212, 20.13251495599707 19.13122787718627, 31.436676251420224 6.127277852800949 M8.474610236752468 32.54211316059797 C13.912190626077166 26.286892468994324, 19.349771015401863 20.031671777390674, 31.436676251420224 6.127277852800949 M11.493448557643557 35.16634927656 C19.67958137291598 25.749280708555425, 27.865714188188402 16.33221214055085, 34.455514572311316 8.75151396876298 M11.493448557643557 35.16634927656 C18.529955274108556 27.071774252740227, 25.56646199057355 18.97719922892045, 34.455514572311316 8.75151396876298 M14.512286878534649 37.79058539252203 C22.648287860882107 28.43118690131042, 30.784288843229564 19.0717884100988, 36.818293864211896 12.130459664947782 M14.512286878534649 37.79058539252203 C21.224345550480916 30.06924514890124, 27.936404222427186 22.347904905280444, 36.818293864211896 12.130459664947782 M17.531125199425738 40.41482150848406 C22.83767454207898 34.31033479333635, 28.14422388473222 28.20584807818865, 39.83713218510299 14.75469578090981 M17.531125199425738 40.41482150848406 C23.687905466030877 33.33225599957976, 29.84468573263602 26.249690490675462, 39.83713218510299 14.75469578090981 M20.549963520316822 43.03905762444609 C26.273393430817183 36.45500467446271, 31.996823341317544 29.87095172447932, 42.85597050599407 17.37893189687184 M20.549963520316822 43.03905762444609 C28.09273655037466 34.36208982782887, 35.6355095804325 25.68512203121164, 42.85597050599407 17.37893189687184 M23.568801841207915 45.663293740408115 C30.90686977664821 37.2218122174361, 38.24493771208851 28.780330694464087, 45.874808826885165 20.003168012833868 M23.568801841207915 45.663293740408115 C28.878538319491007 39.5551406451223, 34.1882747977741 33.446987549836486, 45.874808826885165 20.003168012833868 M26.587640162099 48.28752985637014 C33.01777463493731 40.89050630463423, 39.447909107775615 33.493482752898316, 48.23758811878574 23.382113709018668 M26.587640162099 48.28752985637014 C34.47902674203144 39.209528045648014, 42.37041332196387 30.13152623492589, 48.23758811878574 23.382113709018668" stroke="#fa5252" stroke-width="0.5" fill="none"></path><path d="M25 0 C31.038482691782043 6.010039745271206, 37.07696538356409 12.020079490542413, 49.11358173076928 24 M49.11358173076928 24 C40.999022171602626 31.92729271426227, 32.88446261243597 39.85458542852454, 25 47.55709134615387 M25 47.55709134615387 C19.811810269020498 42.6683449695994, 14.623620538040996 37.77959859304494, 0 24 M0 24 C5.275875865481794 18.935159169137478, 10.551751730963588 13.870318338274956, 25 0" stroke="#000000" stroke-width="1.5" fill="none" stroke-dasharray="3 6"></path></g><g transform="translate(10 59.79657451923066) rotate(0 103.38266225961542 98.86027644230771)"><path d="M-0.2900970038026571 0.7275294419378042 L205.33901629897844 -1.3240998033434153 L207.1437173292328 199.11988448967728 L-0.8640920575708151 199.13284188380035" stroke="none" stroke-width="0" fill="#ffff"></path><path d="M1.3532759607911584 1.1586669077131204 C52.47996820528504 -1.1027361593014495, 106.39141213115632 1.9249951884696237, 206.05293772105895 1.4175346524786332 M-0.2991848942526548 -0.6187277355287004 C58.79327981010574 0.6351465920966367, 115.69461757200921 1.9961472892286034, 207.14177734765502 -0.3331665391026844 M207.86334308165203 -1.5459733661264181 C203.1620938234811 49.6933458737789, 204.28963900141764 99.59836984085707, 207.57294394749294 198.31797452514562 M206.63037405743341 -0.19374142307788134 C207.09263766663597 40.730168627936656, 207.4227664257817 81.3037550018882, 206.859133137605 197.95637042412105 M207.37130100427876 196.44267341511892 C164.09779993214792 196.4961560426556, 116.58614847188493 195.69924084552522, 0.7121653384341258 196.27730591667134 M206.04974152647756 197.71055871732307 C146.25554732296607 196.38988475749977, 87.59855691434598 196.4277128206054, -0.8197032685726783 198.19410754795192 M-0.2770120743662119 198.0707111532012 C-0.41914930910246495 141.41616730658373, 2.8940686288438546 85.14424713245164, -1.2564866784960032 0.13154231943190098 M0.9853775473311543 196.88014010676685 C-1.1004221013930902 122.05640217350239, -2.3586436382678615 46.5268107780187, -0.334117385558784 -0.18031830806285143" stroke="#000000" stroke-width="1" fill="none"></path></g><g><g transform="translate(12.033653846153811 89.10426682692292) rotate(0 101.64489304562312 -1.3872251195818706)"><path d="M-0.7875014696270227 0.11655963398516178 C33.388010134514516 -0.4359403145184274, 169.9362314468441 -2.337546713585732, 204.07728756087332 -2.8910098731488914 M0.9999215294793249 -0.8678505035117269 C35.17717583395923 -1.2884624188636895, 169.7872360723657 -1.3332681604202365, 203.5755404485619 -1.5658682578400702" stroke="#000000" stroke-width="1" fill="none"></path></g></g><g transform="translate(18.268629807692264 70.2244591346153) rotate(0 5.434044471153868 4.436448317307679)"><path d="M1.619544346319937 1.4078484215611713 C1.619544346319937 1.4078484215611713, 1.619544346319937 1.4078484215611713, 1.619544346319937 1.4078484215611713 M1.619544346319937 1.4078484215611713 C1.619544346319937 1.4078484215611713, 1.619544346319937 1.4078484215611713, 1.619544346319937 1.4078484215611713 M1.3580875222584887 7.80563243863706 C2.948454071081896 5.976125004969503, 4.538820619905303 4.146617571301945, 7.262618783173054 1.0132462166321123 M1.3580875222584887 7.80563243863706 C3.527285371158314 5.310255764250928, 5.6964832200581395 2.814879089864796, 7.262618783173054 1.0132462166321123 M5.0329848721400845 9.675158974376318 C7.126470009937353 7.26687981086762, 9.21995514773462 4.85860064735892, 10.93751613305465 2.88277275237137 M5.0329848721400845 9.675158974376318 C7.042668585363375 7.363282322177638, 9.052352298586664 5.0514056699789585, 10.93751613305465 2.88277275237137" stroke="#fa5252" stroke-width="0.5" fill="none"></path><path d="M5.434044471153868 0 C6.540141015725928 -0.05664194301096814, 8.035066073462975 0.4269205447006442, 8.926980927697217 1.037931736649591 C9.81889578193146 1.648942928598538, 10.58335291309761 2.729943695141693, 10.785533596559322 3.666067151693681 C10.987714280021034 4.602190608245669, 10.722221104558052 5.831459323980504, 10.140065028467493 6.654672475961519 C9.557908952376934 7.477885627942533, 8.386692677711928 8.280233798976726, 7.292597140015972 8.605346063579766 C6.198501602320017 8.930458328182807, 4.669587339987719 8.930458328182807, 3.575491802291764 8.605346063579766 C2.4813962645958094 8.280233798976726, 1.310179989930801 7.477885627942533, 0.7280239138402429 6.654672475961519 C0.1458678377496847 5.831459323980504, -0.1196253377132975 4.602190608245668, 0.08255534574841494 3.6660671516936807 C0.2847360292101274 2.7299436951416927, 1.0491931603762756 1.6489429285985384, 1.9411080146105175 1.0379317366495915 C2.8330228688447594 0.42692054470064467, 4.851888395063309 0.1582004617172396, 5.434044471153867 0 C6.016200547244425 -0.1582004617172396, 5.434044471153868 0.014788161057692609, 5.434044471153868 0.0887289663461539 M5.434044471153868 0 C6.540141015725928 -0.05664194301096814, 8.035066073462975 0.4269205447006442, 8.926980927697217 1.037931736649591 C9.81889578193146 1.648942928598538, 10.58335291309761 2.729943695141693, 10.785533596559322 3.666067151693681 C10.987714280021034 4.602190608245669, 10.722221104558052 5.831459323980504, 10.140065028467493 6.654672475961519 C9.557908952376934 7.477885627942533, 8.386692677711928 8.280233798976726, 7.292597140015972 8.605346063579766 C6.198501602320017 8.930458328182807, 4.669587339987719 8.930458328182807, 3.575491802291764 8.605346063579766 C2.4813962645958094 8.280233798976726, 1.310179989930801 7.477885627942533, 0.7280239138402429 6.654672475961519 C0.1458678377496847 5.831459323980504, -0.1196253377132975 4.602190608245668, 0.08255534574841494 3.6660671516936807 C0.2847360292101274 2.7299436951416927, 1.0491931603762756 1.6489429285985384, 1.9411080146105175 1.0379317366495915 C2.8330228688447594 0.42692054470064467, 4.851888395063309 0.1582004617172396, 5.434044471153867 0 C6.016200547244425 -0.1582004617172396, 5.434044471153868 0.014788161057692609, 5.434044471153868 0.0887289663461539" stroke="#000000" stroke-width="1" fill="none"></path></g><g transform="translate(35.652193509615245 69.49173677884602) rotate(0 5.434044471153868 4.436448317307679)"><path d="M1.619544346319937 1.4078484215611713 C1.619544346319937 1.4078484215611713, 1.619544346319937 1.4078484215611713, 1.619544346319937 1.4078484215611713 M1.619544346319937 1.4078484215611713 C1.619544346319937 1.4078484215611713, 1.619544346319937 1.4078484215611713, 1.619544346319937 1.4078484215611713 M1.3580875222584887 7.80563243863706 C2.8271877801697785 6.115625914895675, 4.296288038081068 4.4256193911542905, 7.262618783173054 1.0132462166321123 M1.3580875222584887 7.80563243863706 C2.7335417842023144 6.223353310119392, 4.10899604614614 4.641074181601724, 7.262618783173054 1.0132462166321123 M5.0329848721400845 9.675158974376318 C7.265201621034917 7.10728734837811, 9.497418369929749 4.539415722379902, 10.93751613305465 2.88277275237137 M5.0329848721400845 9.675158974376318 C6.9126092770792775 7.5128984414926805, 8.79223368201847 5.350637908609043, 10.93751613305465 2.88277275237137" stroke="#7950f2" stroke-width="0.5" fill="none"></path><path d="M5.434044471153868 0 C6.540141015725928 -0.05664194301096814, 8.035066073462975 0.4269205447006442, 8.926980927697217 1.037931736649591 C9.81889578193146 1.648942928598538, 10.58335291309761 2.729943695141693, 10.785533596559322 3.666067151693681 C10.987714280021034 4.602190608245669, 10.722221104558052 5.831459323980504, 10.140065028467493 6.654672475961519 C9.557908952376934 7.477885627942533, 8.386692677711928 8.280233798976726, 7.292597140015972 8.605346063579766 C6.198501602320017 8.930458328182807, 4.669587339987719 8.930458328182807, 3.575491802291764 8.605346063579766 C2.4813962645958094 8.280233798976726, 1.310179989930801 7.477885627942533, 0.7280239138402429 6.654672475961519 C0.1458678377496847 5.831459323980504, -0.1196253377132975 4.602190608245668, 0.08255534574841494 3.6660671516936807 C0.2847360292101274 2.7299436951416927, 1.0491931603762756 1.6489429285985384, 1.9411080146105175 1.0379317366495915 C2.8330228688447594 0.42692054470064467, 4.851888395063309 0.1582004617172396, 5.434044471153867 0 C6.016200547244425 -0.1582004617172396, 5.434044471153868 0.014788161057692609, 5.434044471153868 0.0887289663461539 M5.434044471153868 0 C6.540141015725928 -0.05664194301096814, 8.035066073462975 0.4269205447006442, 8.926980927697217 1.037931736649591 C9.81889578193146 1.648942928598538, 10.58335291309761 2.729943695141693, 10.785533596559322 3.666067151693681 C10.987714280021034 4.602190608245669, 10.722221104558052 5.831459323980504, 10.140065028467493 6.654672475961519 C9.557908952376934 7.477885627942533, 8.386692677711928 8.280233798976726, 7.292597140015972 8.605346063579766 C6.198501602320017 8.930458328182807, 4.669587339987719 8.930458328182807, 3.575491802291764 8.605346063579766 C2.4813962645958094 8.280233798976726, 1.310179989930801 7.477885627942533, 0.7280239138402429 6.654672475961519 C0.1458678377496847 5.831459323980504, -0.1196253377132975 4.602190608245668, 0.08255534574841494 3.6660671516936807 C0.2847360292101274 2.7299436951416927, 1.0491931603762756 1.6489429285985384, 1.9411080146105175 1.0379317366495915 C2.8330228688447594 0.42692054470064467, 4.851888395063309 0.1582004617172396, 5.434044471153867 0 C6.016200547244425 -0.1582004617172396, 5.434044471153868 0.014788161057692609, 5.434044471153868 0.0887289663461539" stroke="#000000" stroke-width="1" fill="none"></path></g><g transform="translate(61.51472355769238 151.69260817307674) rotate(0 24.55679086538464 23.778545673076934)"><path d="M25 0 L49.11358173076928 24 L25 47.55709134615387 L0 24" stroke="none" stroke-width="0" fill="#fa5252" fill-rule="evenodd"></path><path d="M25 0 C29.938042057640896 4.914782495051623, 34.87608411528179 9.829564990103245, 49.11358173076928 24 M25 0 C29.875287280817886 4.852323310822249, 34.75057456163577 9.704646621644498, 49.11358173076928 24 M49.11358173076928 24 C43.60340628311934 29.38301227096398, 38.0932308354694 34.76602454192796, 25 47.55709134615387 M49.11358173076928 24 C40.24273696930746 32.66612445618796, 31.371892207845626 41.33224891237592, 25 47.55709134615387 M25 47.55709134615387 C17.19715315150097 40.20459630734825, 9.39430630300194 32.852101268542626, 0 24 M25 47.55709134615387 C17.582589469384402 40.56778664928846, 10.165178938768804 33.57848195242305, 0 24 M0 24 C9.43122063530609 14.946028190106153, 18.86244127061218 5.892056380212306, 25 0 M0 24 C8.379937403369695 15.955260092765094, 16.75987480673939 7.9105201855301885, 25 0" stroke="#000000" stroke-width="1" fill="none"></path></g><g transform="translate(109.69230769230751 151.94350961538458) rotate(0 24.55679086538464 23.778545673076934)"><path d="M25 0 L49.11358173076928 24 L25 47.55709134615387 L0 24" stroke="none" stroke-width="0" fill="#fa5252" fill-rule="evenodd"></path><path d="M25 0 C30.95577611028114 5.927722734957934, 36.91155222056228 11.855445469915868, 49.11358173076928 24 M25 0 C32.3551385994576 7.320493834465743, 39.71027719891519 14.640987668931485, 49.11358173076928 24 M49.11358173076928 24 C42.31021321172827 30.64636118574177, 35.506844692687245 37.29272237148354, 25 47.55709134615387 M49.11358173076928 24 C39.63003386633531 33.264687669481546, 30.146486001901334 42.529375338963085, 25 47.55709134615387 M25 47.55709134615387 C18.833547786343843 41.74654422300223, 12.667095572687685 35.9359970998506, 0 24 M25 47.55709134615387 C17.992263741325587 40.953816019139964, 10.984527482651174 34.35054069212605, 0 24 M0 24 C5.888485878240317 18.347053556889296, 11.776971756480634 12.69410711377859, 25 0 M0 24 C9.615563519764692 14.769059021025896, 19.231127039529383 5.538118042051792, 25 0" stroke="#000000" stroke-width="1" fill="none"></path></g><g transform="translate(52.11373197115381 69.26096754807674) rotate(0 5.434044471153868 4.436448317307679)"><path d="M1.619544346319937 1.4078484215611713 C1.619544346319937 1.4078484215611713, 1.619544346319937 1.4078484215611713, 1.619544346319937 1.4078484215611713 M1.619544346319937 1.4078484215611713 C1.619544346319937 1.4078484215611713, 1.619544346319937 1.4078484215611713, 1.619544346319937 1.4078484215611713 M1.3580875222584887 7.80563243863706 C2.6127018479604853 6.362363755102594, 3.8673161736624815 4.919095071568127, 7.262618783173054 1.0132462166321123 M1.3580875222584887 7.80563243863706 C3.003345831530775 5.912979257932369, 4.6486041408030605 4.020326077227677, 7.262618783173054 1.0132462166321123 M5.0329848721400845 9.675158974376318 C6.594012569071323 7.879402029029649, 8.155040266002562 6.083645083682979, 10.93751613305465 2.88277275237137 M5.0329848721400845 9.675158974376318 C6.590419873510924 7.883534952499095, 8.147854874881762 6.0919109306218715, 10.93751613305465 2.88277275237137" stroke="#40c057" stroke-width="0.5" fill="none"></path><path d="M5.434044471153868 0 C6.540141015725928 -0.05664194301096814, 8.035066073462975 0.4269205447006442, 8.926980927697217 1.037931736649591 C9.81889578193146 1.648942928598538, 10.58335291309761 2.729943695141693, 10.785533596559322 3.666067151693681 C10.987714280021034 4.602190608245669, 10.722221104558052 5.831459323980504, 10.140065028467493 6.654672475961519 C9.557908952376934 7.477885627942533, 8.386692677711928 8.280233798976726, 7.292597140015972 8.605346063579766 C6.198501602320017 8.930458328182807, 4.669587339987719 8.930458328182807, 3.575491802291764 8.605346063579766 C2.4813962645958094 8.280233798976726, 1.310179989930801 7.477885627942533, 0.7280239138402429 6.654672475961519 C0.1458678377496847 5.831459323980504, -0.1196253377132975 4.602190608245668, 0.08255534574841494 3.6660671516936807 C0.2847360292101274 2.7299436951416927, 1.0491931603762756 1.6489429285985384, 1.9411080146105175 1.0379317366495915 C2.8330228688447594 0.42692054470064467, 4.851888395063309 0.1582004617172396, 5.434044471153867 0 C6.016200547244425 -0.1582004617172396, 5.434044471153868 0.014788161057692609, 5.434044471153868 0.0887289663461539 M5.434044471153868 0 C6.540141015725928 -0.05664194301096814, 8.035066073462975 0.4269205447006442, 8.926980927697217 1.037931736649591 C9.81889578193146 1.648942928598538, 10.58335291309761 2.729943695141693, 10.785533596559322 3.666067151693681 C10.987714280021034 4.602190608245669, 10.722221104558052 5.831459323980504, 10.140065028467493 6.654672475961519 C9.557908952376934 7.477885627942533, 8.386692677711928 8.280233798976726, 7.292597140015972 8.605346063579766 C6.198501602320017 8.930458328182807, 4.669587339987719 8.930458328182807, 3.575491802291764 8.605346063579766 C2.4813962645958094 8.280233798976726, 1.310179989930801 7.477885627942533, 0.7280239138402429 6.654672475961519 C0.1458678377496847 5.831459323980504, -0.1196253377132975 4.602190608245668, 0.08255534574841494 3.6660671516936807 C0.2847360292101274 2.7299436951416927, 1.0491931603762756 1.6489429285985384, 1.9411080146105175 1.0379317366495915 C2.8330228688447594 0.42692054470064467, 4.851888395063309 0.1582004617172396, 5.434044471153867 0 C6.016200547244425 -0.1582004617172396, 5.434044471153868 0.014788161057692609, 5.434044471153868 0.0887289663461539" stroke="#000000" stroke-width="1" fill="none"></path></g><g stroke-opacity="0.4" fill-opacity="0.4" transform="translate(56.580829326923094 120.77133413461542) rotate(0 54.41256009615381 54.41256009615378)"><path d="M54.4125600961538 0 C63.18210400941412 -0.7806350729096229, 74.15976534005637 2.876283868983937, 82.10585666434429 7.574455721576484 C90.05194798863221 12.272627574169032, 97.64028247758188 20.100697715598763, 102.08910804188136 28.18903111555528 C106.53793360618084 36.2773645155118, 109.0858404606723 46.87782078475616, 108.79881005014116 56.104456121315586 C108.51177963961001 65.331091457875, 105.30990029912184 75.75267824417017, 100.3669255786945 83.54884313491183 C95.42395085826718 91.3450080256535, 87.36371528850952 98.68626847705694, 79.14096172757715 102.88144546576558 C70.91820816664477 107.07662245447422, 60.24365330764467 109.29368831220698, 51.03040421310021 108.7199050671637 C41.81715511855575 108.1461218221204, 31.50016624768875 104.62174342391553, 23.861467160310383 99.43874599550583 C16.222768072932016 94.25574856709612, 9.135681108386356 85.97114231137742, 5.198209688830005 77.62192049670548 C1.2607382692736544 69.27269868203355, -0.6233425529782354 58.53436818281025, 0.23663864297228088 49.34341510747425 C1.096619838922797 40.15246203213825, 4.940089004679709 29.950048237981377, 10.358096864533103 22.47620204468949 C15.776104724386496 15.002355851397603, 25.402275263489198 8.246371621837849, 32.74468580209265 4.500337947722933 C40.08709634069609 0.7543042736080179, 50.80124771381026 0.5686811242999757, 54.41256009615379 0 C58.02387247849732 -0.5686811242999757, 54.4125600961538 0.18137520032051546, 54.4125600961538 1.0882512019230788" stroke="#000000" stroke-width="1.5" fill="none" stroke-dasharray="3 6"></path></g></svg>